<mxfile host="Electron" modified="2024-01-25T15:48:18.012Z" agent="Mozilla/5.0 (Windows NT 10.0; Win64; x64) AppleWebKit/537.36 (KHTML, like Gecko) draw.io/22.1.21 Chrome/120.0.6099.109 Electron/28.1.0 Safari/537.36" etag="aY8NQmDpPsq67yFiQpF4" version="22.1.21" type="device">
  <diagram name="Sayfa -1" id="Kw57K-LUfRIB3y34ZgJp">
    <mxGraphModel dx="2245" dy="820" grid="1" gridSize="10" guides="1" tooltips="1" connect="1" arrows="1" fold="1" page="1" pageScale="1" pageWidth="827" pageHeight="1169" math="0" shadow="0">
      <root>
        <mxCell id="0" />
        <mxCell id="1" parent="0" />
        <mxCell id="OosglvzrW0y8HTFW12dl-15" value="" style="rounded=1;whiteSpace=wrap;html=1;fillColor=none;" parent="1" vertex="1">
          <mxGeometry x="600" y="620" width="520" height="460" as="geometry" />
        </mxCell>
        <mxCell id="OosglvzrW0y8HTFW12dl-14" value="" style="rounded=1;whiteSpace=wrap;html=1;fillColor=none;" parent="1" vertex="1">
          <mxGeometry y="620" width="520" height="460" as="geometry" />
        </mxCell>
        <mxCell id="OosglvzrW0y8HTFW12dl-13" value="" style="rounded=1;whiteSpace=wrap;html=1;" parent="1" vertex="1">
          <mxGeometry x="-600" y="80" width="320" height="60" as="geometry" />
        </mxCell>
        <mxCell id="OosglvzrW0y8HTFW12dl-12" value="" style="rounded=1;whiteSpace=wrap;html=1;" parent="1" vertex="1">
          <mxGeometry x="1001" y="410" width="240" height="80" as="geometry" />
        </mxCell>
        <mxCell id="OosglvzrW0y8HTFW12dl-11" value="" style="rounded=1;whiteSpace=wrap;html=1;" parent="1" vertex="1">
          <mxGeometry x="1001" y="290" width="240" height="80" as="geometry" />
        </mxCell>
        <mxCell id="OosglvzrW0y8HTFW12dl-10" value="" style="rounded=1;whiteSpace=wrap;html=1;" parent="1" vertex="1">
          <mxGeometry x="1001" y="170" width="240" height="80" as="geometry" />
        </mxCell>
        <mxCell id="OosglvzrW0y8HTFW12dl-5" value="" style="rounded=1;whiteSpace=wrap;html=1;fillColor=none;" parent="1" vertex="1">
          <mxGeometry x="-600" y="620" width="520" height="460" as="geometry" />
        </mxCell>
        <mxCell id="PJ_JWWfGZbgqBx4CNWUE-2" value="Config Server" style="ellipse;whiteSpace=wrap;html=1;aspect=fixed;" parent="1" vertex="1">
          <mxGeometry x="40" y="70" width="80" height="80" as="geometry" />
        </mxCell>
        <mxCell id="PJ_JWWfGZbgqBx4CNWUE-3" value="Api Gateway" style="ellipse;whiteSpace=wrap;html=1;aspect=fixed;" parent="1" vertex="1">
          <mxGeometry x="460" y="70" width="80" height="80" as="geometry" />
        </mxCell>
        <mxCell id="PJ_JWWfGZbgqBx4CNWUE-4" value="Auth" style="ellipse;whiteSpace=wrap;html=1;aspect=fixed;" parent="1" vertex="1">
          <mxGeometry x="1001" y="650" width="80" height="80" as="geometry" />
        </mxCell>
        <mxCell id="PJ_JWWfGZbgqBx4CNWUE-5" value="UserProfile" style="ellipse;whiteSpace=wrap;html=1;aspect=fixed;" parent="1" vertex="1">
          <mxGeometry x="40" y="650" width="80" height="80" as="geometry" />
        </mxCell>
        <mxCell id="PJ_JWWfGZbgqBx4CNWUE-6" value="Hesap" style="ellipse;whiteSpace=wrap;html=1;aspect=fixed;" parent="1" vertex="1">
          <mxGeometry x="640" y="650" width="80" height="80" as="geometry" />
        </mxCell>
        <mxCell id="PJ_JWWfGZbgqBx4CNWUE-7" value="Kart" style="ellipse;whiteSpace=wrap;html=1;aspect=fixed;" parent="1" vertex="1">
          <mxGeometry x="400" y="650" width="80" height="80" as="geometry" />
        </mxCell>
        <mxCell id="PJ_JWWfGZbgqBx4CNWUE-8" value="Para Trasnfer" style="ellipse;whiteSpace=wrap;html=1;aspect=fixed;" parent="1" vertex="1">
          <mxGeometry x="-560" y="650" width="80" height="80" as="geometry" />
        </mxCell>
        <mxCell id="PJ_JWWfGZbgqBx4CNWUE-9" value="Ã–deme" style="ellipse;whiteSpace=wrap;html=1;aspect=fixed;" parent="1" vertex="1">
          <mxGeometry x="220" y="650" width="80" height="80" as="geometry" />
        </mxCell>
        <mxCell id="PJ_JWWfGZbgqBx4CNWUE-10" value="SMS" style="ellipse;whiteSpace=wrap;html=1;aspect=fixed;" parent="1" vertex="1">
          <mxGeometry x="820" y="650" width="80" height="80" as="geometry" />
        </mxCell>
        <mxCell id="PJ_JWWfGZbgqBx4CNWUE-11" value="Raporlama" style="ellipse;whiteSpace=wrap;html=1;aspect=fixed;" parent="1" vertex="1">
          <mxGeometry x="-380" y="650" width="80" height="80" as="geometry" />
        </mxCell>
        <mxCell id="PJ_JWWfGZbgqBx4CNWUE-25" style="edgeStyle=orthogonalEdgeStyle;rounded=0;orthogonalLoop=1;jettySize=auto;html=1;exitX=0.5;exitY=0;exitDx=0;exitDy=0;exitPerimeter=0;entryX=0.5;entryY=1;entryDx=0;entryDy=0;" parent="1" source="PJ_JWWfGZbgqBx4CNWUE-13" target="PJ_JWWfGZbgqBx4CNWUE-4" edge="1">
          <mxGeometry relative="1" as="geometry" />
        </mxCell>
        <mxCell id="PJ_JWWfGZbgqBx4CNWUE-13" value="MySql" style="shape=cylinder3;whiteSpace=wrap;html=1;boundedLbl=1;backgroundOutline=1;size=15;" parent="1" vertex="1">
          <mxGeometry x="1011" y="770" width="60" height="80" as="geometry" />
        </mxCell>
        <mxCell id="PJ_JWWfGZbgqBx4CNWUE-26" style="edgeStyle=orthogonalEdgeStyle;rounded=0;orthogonalLoop=1;jettySize=auto;html=1;exitX=0.5;exitY=0;exitDx=0;exitDy=0;exitPerimeter=0;entryX=0.5;entryY=1;entryDx=0;entryDy=0;" parent="1" source="PJ_JWWfGZbgqBx4CNWUE-14" target="PJ_JWWfGZbgqBx4CNWUE-5" edge="1">
          <mxGeometry relative="1" as="geometry" />
        </mxCell>
        <mxCell id="PJ_JWWfGZbgqBx4CNWUE-14" value="Postgre" style="shape=cylinder3;whiteSpace=wrap;html=1;boundedLbl=1;backgroundOutline=1;size=15;" parent="1" vertex="1">
          <mxGeometry x="50" y="770" width="60" height="80" as="geometry" />
        </mxCell>
        <mxCell id="PJ_JWWfGZbgqBx4CNWUE-37" style="edgeStyle=orthogonalEdgeStyle;rounded=0;orthogonalLoop=1;jettySize=auto;html=1;exitX=0.5;exitY=0;exitDx=0;exitDy=0;exitPerimeter=0;entryX=0.5;entryY=1;entryDx=0;entryDy=0;" parent="1" source="PJ_JWWfGZbgqBx4CNWUE-15" edge="1" target="PJ_JWWfGZbgqBx4CNWUE-6">
          <mxGeometry relative="1" as="geometry">
            <mxPoint x="680" y="740" as="targetPoint" />
          </mxGeometry>
        </mxCell>
        <mxCell id="PJ_JWWfGZbgqBx4CNWUE-15" value="Postgre" style="shape=cylinder3;whiteSpace=wrap;html=1;boundedLbl=1;backgroundOutline=1;size=15;" parent="1" vertex="1">
          <mxGeometry x="650" y="770" width="60" height="80" as="geometry" />
        </mxCell>
        <mxCell id="PJ_JWWfGZbgqBx4CNWUE-39" style="edgeStyle=orthogonalEdgeStyle;rounded=0;orthogonalLoop=1;jettySize=auto;html=1;exitX=0.5;exitY=0;exitDx=0;exitDy=0;exitPerimeter=0;entryX=0.5;entryY=1;entryDx=0;entryDy=0;" parent="1" source="PJ_JWWfGZbgqBx4CNWUE-16" target="PJ_JWWfGZbgqBx4CNWUE-7" edge="1">
          <mxGeometry relative="1" as="geometry" />
        </mxCell>
        <mxCell id="PJ_JWWfGZbgqBx4CNWUE-16" value="Postgre" style="shape=cylinder3;whiteSpace=wrap;html=1;boundedLbl=1;backgroundOutline=1;size=15;" parent="1" vertex="1">
          <mxGeometry x="410" y="770" width="60" height="80" as="geometry" />
        </mxCell>
        <mxCell id="PJ_JWWfGZbgqBx4CNWUE-41" style="edgeStyle=orthogonalEdgeStyle;rounded=0;orthogonalLoop=1;jettySize=auto;html=1;exitX=0.5;exitY=0;exitDx=0;exitDy=0;exitPerimeter=0;entryX=0.5;entryY=1;entryDx=0;entryDy=0;" parent="1" source="PJ_JWWfGZbgqBx4CNWUE-17" target="PJ_JWWfGZbgqBx4CNWUE-8" edge="1">
          <mxGeometry relative="1" as="geometry" />
        </mxCell>
        <mxCell id="PJ_JWWfGZbgqBx4CNWUE-17" value="MySql" style="shape=cylinder3;whiteSpace=wrap;html=1;boundedLbl=1;backgroundOutline=1;size=15;" parent="1" vertex="1">
          <mxGeometry x="-550" y="770" width="60" height="80" as="geometry" />
        </mxCell>
        <mxCell id="WtVYmwUE8GjRnW-ljwtE-3" style="edgeStyle=orthogonalEdgeStyle;rounded=0;orthogonalLoop=1;jettySize=auto;html=1;exitX=0.5;exitY=0;exitDx=0;exitDy=0;exitPerimeter=0;entryX=0.5;entryY=1;entryDx=0;entryDy=0;" edge="1" parent="1" source="PJ_JWWfGZbgqBx4CNWUE-18" target="PJ_JWWfGZbgqBx4CNWUE-9">
          <mxGeometry relative="1" as="geometry" />
        </mxCell>
        <mxCell id="PJ_JWWfGZbgqBx4CNWUE-18" value="Mongo" style="shape=cylinder3;whiteSpace=wrap;html=1;boundedLbl=1;backgroundOutline=1;size=15;" parent="1" vertex="1">
          <mxGeometry x="230" y="770" width="60" height="80" as="geometry" />
        </mxCell>
        <mxCell id="PJ_JWWfGZbgqBx4CNWUE-19" value="JasperReports" style="shape=hexagon;perimeter=hexagonPerimeter2;whiteSpace=wrap;html=1;fixedSize=1;" parent="1" vertex="1">
          <mxGeometry x="-400" y="770" width="120" height="80" as="geometry" />
        </mxCell>
        <mxCell id="PJ_JWWfGZbgqBx4CNWUE-20" value="RabbitMQ" style="rhombus;whiteSpace=wrap;html=1;" parent="1" vertex="1">
          <mxGeometry x="1001" y="290" width="80" height="80" as="geometry" />
        </mxCell>
        <mxCell id="PJ_JWWfGZbgqBx4CNWUE-21" value="Redis" style="rhombus;whiteSpace=wrap;html=1;" parent="1" vertex="1">
          <mxGeometry x="1001" y="410" width="80" height="80" as="geometry" />
        </mxCell>
        <mxCell id="PJ_JWWfGZbgqBx4CNWUE-23" style="edgeStyle=orthogonalEdgeStyle;rounded=0;orthogonalLoop=1;jettySize=auto;html=1;exitX=0.5;exitY=1;exitDx=0;exitDy=0;entryX=0.5;entryY=0;entryDx=0;entryDy=0;entryPerimeter=0;" parent="1" source="PJ_JWWfGZbgqBx4CNWUE-4" target="PJ_JWWfGZbgqBx4CNWUE-13" edge="1">
          <mxGeometry relative="1" as="geometry" />
        </mxCell>
        <mxCell id="PJ_JWWfGZbgqBx4CNWUE-24" style="edgeStyle=orthogonalEdgeStyle;rounded=0;orthogonalLoop=1;jettySize=auto;html=1;exitX=0.5;exitY=1;exitDx=0;exitDy=0;entryX=0.5;entryY=0;entryDx=0;entryDy=0;entryPerimeter=0;" parent="1" source="PJ_JWWfGZbgqBx4CNWUE-5" target="PJ_JWWfGZbgqBx4CNWUE-14" edge="1">
          <mxGeometry relative="1" as="geometry" />
        </mxCell>
        <mxCell id="PJ_JWWfGZbgqBx4CNWUE-36" style="edgeStyle=orthogonalEdgeStyle;rounded=0;orthogonalLoop=1;jettySize=auto;html=1;exitX=0.5;exitY=1;exitDx=0;exitDy=0;entryX=0.5;entryY=0;entryDx=0;entryDy=0;entryPerimeter=0;" parent="1" source="PJ_JWWfGZbgqBx4CNWUE-6" target="PJ_JWWfGZbgqBx4CNWUE-15" edge="1">
          <mxGeometry relative="1" as="geometry">
            <Array as="points">
              <mxPoint x="680" y="730" />
              <mxPoint x="680" y="730" />
            </Array>
          </mxGeometry>
        </mxCell>
        <mxCell id="PJ_JWWfGZbgqBx4CNWUE-38" style="edgeStyle=orthogonalEdgeStyle;rounded=0;orthogonalLoop=1;jettySize=auto;html=1;exitX=0.5;exitY=1;exitDx=0;exitDy=0;entryX=0.5;entryY=0;entryDx=0;entryDy=0;entryPerimeter=0;" parent="1" source="PJ_JWWfGZbgqBx4CNWUE-7" target="PJ_JWWfGZbgqBx4CNWUE-16" edge="1">
          <mxGeometry relative="1" as="geometry" />
        </mxCell>
        <mxCell id="PJ_JWWfGZbgqBx4CNWUE-40" style="edgeStyle=orthogonalEdgeStyle;rounded=0;orthogonalLoop=1;jettySize=auto;html=1;exitX=0.5;exitY=1;exitDx=0;exitDy=0;entryX=0.5;entryY=0;entryDx=0;entryDy=0;entryPerimeter=0;" parent="1" source="PJ_JWWfGZbgqBx4CNWUE-8" target="PJ_JWWfGZbgqBx4CNWUE-17" edge="1">
          <mxGeometry relative="1" as="geometry" />
        </mxCell>
        <mxCell id="PJ_JWWfGZbgqBx4CNWUE-42" style="edgeStyle=orthogonalEdgeStyle;rounded=0;orthogonalLoop=1;jettySize=auto;html=1;exitX=0.5;exitY=1;exitDx=0;exitDy=0;entryX=0.5;entryY=0;entryDx=0;entryDy=0;entryPerimeter=0;" parent="1" source="PJ_JWWfGZbgqBx4CNWUE-9" target="PJ_JWWfGZbgqBx4CNWUE-18" edge="1">
          <mxGeometry relative="1" as="geometry" />
        </mxCell>
        <mxCell id="PJ_JWWfGZbgqBx4CNWUE-44" value="Eureka Server" style="ellipse;whiteSpace=wrap;html=1;aspect=fixed;" parent="1" vertex="1">
          <mxGeometry x="200" y="70" width="80" height="80" as="geometry" />
        </mxCell>
        <mxCell id="PJ_JWWfGZbgqBx4CNWUE-46" value="Zipkin" style="rhombus;whiteSpace=wrap;html=1;" parent="1" vertex="1">
          <mxGeometry x="1001" y="170" width="80" height="80" as="geometry" />
        </mxCell>
        <mxCell id="PJ_JWWfGZbgqBx4CNWUE-48" value="Twilio" style="shape=hexagon;perimeter=hexagonPerimeter2;whiteSpace=wrap;html=1;fixedSize=1;" parent="1" vertex="1">
          <mxGeometry x="800" y="770" width="120" height="80" as="geometry" />
        </mxCell>
        <mxCell id="OosglvzrW0y8HTFW12dl-1" value="Mail" style="ellipse;whiteSpace=wrap;html=1;aspect=fixed;" parent="1" vertex="1">
          <mxGeometry x="-200" y="650" width="80" height="80" as="geometry" />
        </mxCell>
        <mxCell id="OosglvzrW0y8HTFW12dl-2" value="Mail Sender" style="shape=hexagon;perimeter=hexagonPerimeter2;whiteSpace=wrap;html=1;fixedSize=1;" parent="1" vertex="1">
          <mxGeometry x="-220" y="770" width="120" height="80" as="geometry" />
        </mxCell>
        <mxCell id="OosglvzrW0y8HTFW12dl-4" value="&lt;h1&gt;Volkan&lt;/h1&gt;" style="text;html=1;strokeColor=none;fillColor=none;spacing=5;spacingTop=-20;whiteSpace=wrap;overflow=hidden;rounded=0;" parent="1" vertex="1">
          <mxGeometry y="1100" width="260" height="40" as="geometry" />
        </mxCell>
        <mxCell id="OosglvzrW0y8HTFW12dl-6" value="&lt;h1&gt;Muhittin&lt;/h1&gt;" style="text;html=1;strokeColor=none;fillColor=none;spacing=5;spacingTop=-20;whiteSpace=wrap;overflow=hidden;rounded=0;" parent="1" vertex="1">
          <mxGeometry x="-600" y="1100" width="190" height="40" as="geometry" />
        </mxCell>
        <mxCell id="OosglvzrW0y8HTFW12dl-8" value="&lt;h1&gt;Enes&lt;/h1&gt;" style="text;html=1;strokeColor=none;fillColor=none;spacing=5;spacingTop=-20;whiteSpace=wrap;overflow=hidden;rounded=0;" parent="1" vertex="1">
          <mxGeometry x="600" y="1100" width="190" height="40" as="geometry" />
        </mxCell>
        <mxCell id="OosglvzrW0y8HTFW12dl-9" value="&lt;h1&gt;VEM Finance Solutions&lt;br&gt;&lt;/h1&gt;&lt;div&gt;&lt;a title=&quot;mailto:vembanking@gmail.com&quot; class=&quot;fui-Link ___1rxvrpe f2hkw1w f3rmtva f1ewtqcl fyind8e f1k6fduh f1w7gpdv fk6fouc fjoy568 figsok6 f1hu3pq6 f11qmguv f19f4twv f1tyq0we f1g0x7ka fhxju0i f1qch9an f1cnd47f fqv5qza f1vmzxwi f1o700av f13mvf36 f1cmlufx f9n3di6 f1ids18y f1tx3yz7 f1deo86v f1eh06m1 f1iescvh fhgqx19 f1olyrje f1p93eir f1nev41a f1h8hb77 f1lqvz6u f10aw75t fsle3fq f17ae5zn&quot; target=&quot;_blank&quot; rel=&quot;noreferrer noopener&quot; href=&quot;mailto:vembanking@gmail.com&quot; aria-label=&quot;vembanking@gmail.com BaÄŸlantÄ±sÄ±&quot;&gt;vembanking@gmail.com&lt;/a&gt;&lt;br&gt;&lt;/div&gt;&lt;div&gt;Vem123456.&lt;br&gt;&lt;/div&gt;" style="text;html=1;strokeColor=none;fillColor=none;spacing=5;spacingTop=-20;whiteSpace=wrap;overflow=hidden;rounded=0;" parent="1" vertex="1">
          <mxGeometry x="-590" y="90" width="300" height="40" as="geometry" />
        </mxCell>
        <mxCell id="WtVYmwUE8GjRnW-ljwtE-1" value="&lt;h1&gt;Account&lt;/h1&gt;&lt;p&gt;&lt;/p&gt;&lt;ol&gt;&lt;li&gt;account_no&lt;/li&gt;&lt;li&gt;user_id&lt;/li&gt;&lt;li&gt;account_type&lt;/li&gt;&lt;li&gt;balance&lt;/li&gt;&lt;li&gt;state&lt;/li&gt;&lt;li&gt;creation_date&lt;/li&gt;&lt;/ol&gt;&lt;p&gt;&lt;/p&gt;" style="text;html=1;strokeColor=none;fillColor=none;spacing=5;spacingTop=-20;whiteSpace=wrap;overflow=hidden;rounded=0;" vertex="1" parent="1">
          <mxGeometry x="620" y="850" width="160" height="200" as="geometry" />
        </mxCell>
        <mxCell id="WtVYmwUE8GjRnW-ljwtE-2" value="&lt;h1&gt;Auth&lt;/h1&gt;&lt;p&gt;&lt;/p&gt;&lt;ol&gt;&lt;li&gt;id&lt;/li&gt;&lt;li&gt;user_id&lt;/li&gt;&lt;li&gt;ID_no&lt;/li&gt;&lt;li&gt;password&lt;/li&gt;&lt;li&gt;state&lt;/li&gt;&lt;li&gt;creation_date&lt;/li&gt;&lt;/ol&gt;&lt;p&gt;&lt;/p&gt;" style="text;html=1;strokeColor=none;fillColor=none;spacing=5;spacingTop=-20;whiteSpace=wrap;overflow=hidden;rounded=0;" vertex="1" parent="1">
          <mxGeometry x="970" y="850" width="140" height="200" as="geometry" />
        </mxCell>
      </root>
    </mxGraphModel>
  </diagram>
</mxfile>
